# xmcd
#
# Track frame offsets:
#	150
#	16617
#	41187
#	60015
#	88440
#	107540
#	121587
#	164682
#	178685
#	199665
#	226005
#	246132
#
# Disc length: 3503 seconds
#
# Revision: 0
# Processed by: cddbd v1.5.2PL0 Copyright (c) Steve Scherf et al.
# Submitted via: EasyCDDAExtractor 15.3.0.1
#
DISCID=8d0dad0c
DTITLE=Gene Chandler - The Chi-Sound Hears
DYEAR=1997
DGENRE=Soul
TTITLE0=Get Down
TTITLE1=Rainbow
TTITLE2=Let me make love to you
TTITLE3=Stay here in my heart
TTITLE4=Does she have a friend
TTITLE5=What Now
TTITLE6=When you're number one
TTITLE7=I'm attracted to you
TTITLE8=All about the paper
TTITLE9=Please sunrise
TTITLE10=You've been so sweet to me
TTITLE11=Give me the cue
EXTD=
EXTT0=
EXTT1=
EXTT2=
EXTT3=
EXTT4=
EXTT5=
EXTT6=
EXTT7=
EXTT8=
EXTT9=
EXTT10=
EXTT11=
PLAYORDER=
